<svg width="88" height="88" viewBox="0 0 88 88" fill="none" xmlns="http://www.w3.org/2000/svg">
<g id="heroicons-solid/document-check">
<g id="Subtract">
<path fill-rule="evenodd" clip-rule="evenodd" d="M33 5.5H20.625C16.828 5.5 13.75 8.57804 13.75 12.375V75.625C13.75 79.422 16.828 82.5 20.625 82.5H67.375C71.172 82.5 74.25 79.422 74.25 75.625V46.75C74.25 39.1561 68.0939 33 60.5 33H53.625C49.828 33 46.75 29.922 46.75 26.125V19.25C46.75 11.6561 40.5939 5.5 33 5.5ZM57.2378 45.5984C58.1205 44.3625 57.8343 42.645 56.5984 41.7622C55.3625 40.8795 53.645 41.1657 52.7622 42.4016L40.8991 59.01L34.9445 53.0555C33.8706 51.9815 32.1294 51.9815 31.0555 53.0555C29.9815 54.1294 29.9815 55.8706 31.0555 56.9445L39.3055 65.1945C39.8771 65.7661 40.6712 66.0573 41.4768 65.9906C42.2824 65.924 43.0179 65.5062 43.4878 64.8484L57.2378 45.5984Z" fill="#735EFA"/>
<path d="M47.561 6.65832C50.4825 10.0338 52.25 14.4355 52.25 19.25V26.125C52.25 26.8844 52.8656 27.5 53.625 27.5H60.5C65.3145 27.5 69.7162 29.2675 73.0917 32.189C69.8362 19.7262 60.0238 9.91384 47.561 6.65832Z" fill="#735EFA"/>
</g>
</g>
</svg>
